<?xml version="1.0" encoding="UTF-8"?>
<svg width="150px" height="150px" viewBox="0 0 150 150" version="1.1" xmlns="http://www.w3.org/2000/svg" xmlns:xlink="http://www.w3.org/1999/xlink">
    <!-- Generator: Sketch 51 (57462) - http://www.bohemiancoding.com/sketch -->
    <title>icon-2</title>
    <desc>Created with Sketch.</desc>
    <defs></defs>
    <g id="Page-1" stroke="none" stroke-width="1" fill="none" fill-rule="evenodd">
        <g id="Tablet-portrait" transform="translate(-303.000000, -666.000000)">
            <g id="icon-2" transform="translate(303.000000, 666.000000)">
                <circle id="Oval" fill="#F2F2F2" cx="75" cy="75" r="75"></circle>
                <g id="Group-6" transform="translate(41.292135, 35.393258)">
                    <g id="shopping-bag" fill="#373737">
                        <path d="M49.5082288,38.3690309 C46.0952416,38.3690309 43.3196754,35.5928459 43.3196754,32.1804775 C43.3196754,29.7106259 44.5573861,27.4852221 47.0328074,26.5086684 L47.0328074,32.1804775 C47.0328074,33.5456724 48.1436528,34.6558989 49.5082288,34.6558989 C50.8728048,34.6558989 51.9836501,33.5456724 51.9836501,32.1804775 L51.9836501,26.5123815 C54.4590715,27.4889352 55.6967821,29.7310481 55.6967821,32.1804775 C55.6967821,35.5928459 52.921216,38.3690309 49.5082288,38.3690309 Z M18.5654619,38.3690309 C15.1524747,38.3690309 12.3769085,35.5928459 12.3769085,32.1804775 C12.3769085,29.7106259 13.6146192,27.4852221 16.0900406,26.5086684 L16.0900406,32.1804775 C16.0900406,33.5456724 17.2008859,34.6558989 18.5654619,34.6558989 C19.9300379,34.6558989 21.0408833,33.5456724 21.0408833,32.1804775 L21.0408833,26.5123815 C23.5163046,27.4889352 24.7540153,29.7310481 24.7540153,32.1804775 C24.7540153,35.5928459 21.9784491,38.3690309 18.5654619,38.3690309 Z M34.0368453,4.9508427 C41.2031901,4.9508427 47.0328074,10.7810788 47.0328074,17.9468048 L47.0328074,21.0410815 L21.0408833,21.0410815 L21.0408833,17.9468048 C21.0408833,10.7810788 26.8705005,4.9508427 34.0368453,4.9508427 Z M63.740045,21.6129038 C63.7159096,21.2904802 63.4460887,21.0410815 63.1230462,21.0410815 L51.9836501,21.0410815 L51.9836501,17.9468048 C51.9836501,8.05068908 43.9323422,0 34.0368453,0 C24.1413485,0 16.0900406,8.05068908 16.0900406,17.9468048 L16.0900406,21.0410815 L4.9506445,21.0410815 C4.62760201,21.0410815 4.35778109,21.2904802 4.33380044,21.6129038 L0.00181308372,78.5475948 C-0.0113375922,78.7190177 0.0474536648,78.8885841 0.165036179,79.0148306 C0.281999838,79.1416959 0.446615357,79.2134831 0.618657141,79.2134831 L67.4550335,79.2134831 C67.6270753,79.2134831 67.7916908,79.1416959 67.9086545,79.0154494 C68.0257729,78.8892029 68.085183,78.7196366 68.0720323,78.5482137 L63.740045,21.6129038 Z" id="Fill-1"></path>
                    </g>
                    <g id="coffee-beans" transform="translate(19.382022, 42.977528)" fill="#28E7A8">
                        <path d="M10.8883944,11.2495565 C12.3345506,8.89634831 14.38767,7.08827617 16.6790509,6.12241277 C14.6877587,2.32304849 11.0685985,0.0904790065 7.63115021,0.331756357 C9.197945,2.08101715 10.5264784,5.09698403 10.7677558,10.1042431 C10.8265671,10.5249704 10.8883944,10.8876404 10.8883944,11.2495565 Z" id="Fill-1"></path>
                        <path d="M7.81060024,10.2836931 C7.56932289,4.73506801 5.82006209,2.44368717 4.43271733,1.47706978 C1.05709639,3.70963927 -0.211871674,8.83753696 1.53738912,13.66233 C2.92473389,17.4028829 5.76125074,19.9973684 8.77721762,20.8395772 C8.5970136,19.3934211 8.5970136,17.8854376 8.8978563,16.3774542 C8.35573625,14.6281934 7.9319929,12.6369012 7.81060024,10.2836931 Z" id="Fill-3"></path>
                        <path d="M24.3396067,8.29240095 C22.952262,9.25901833 21.2030012,11.5503992 20.9617238,17.0402129 C20.7196925,22.0474719 19.211709,25.4841662 17.2829982,27.8373743 C17.5242756,27.8373743 17.7655529,27.8961857 18.0045683,27.8961857 C21.7451212,27.8961857 25.5444855,24.9428001 27.2349349,20.4776611 C28.9841957,15.5910408 27.7182436,10.5249704 24.3396067,8.29240095 Z" id="Fill-4"></path>
                        <path d="M21.0823625,7.20891484 L20.4784151,7.20891484 C16.7378622,7.20891484 12.9384979,10.1042431 11.2510645,14.6281934 C9.43997635,19.5140597 10.7677558,24.5801301 14.1463927,26.8126996 C16.0162921,24.8802188 17.7037256,21.8642519 17.8839296,16.9814015 C18.1870343,11.9123152 19.5125517,8.95817564 21.0823625,7.20891484 Z" id="Fill-6"></path>
                    </g>
                </g>
            </g>
        </g>
    </g>
</svg>