<?xml version="1.0" encoding="UTF-8"?>
<svg width="150px" height="150px" viewBox="0 0 150 150" version="1.1" xmlns="http://www.w3.org/2000/svg" xmlns:xlink="http://www.w3.org/1999/xlink">
    <!-- Generator: Sketch 51 (57462) - http://www.bohemiancoding.com/sketch -->
    <title>icon-1</title>
    <desc>Created with Sketch.</desc>
    <defs></defs>
    <g id="Page-1" stroke="none" stroke-width="1" fill="none" fill-rule="evenodd">
        <g id="Tablet-portrait" transform="translate(-49.000000, -666.000000)">
            <g id="icon-1" transform="translate(49.000000, 666.000000)">
                <circle id="Oval" fill="#F2F2F2" cx="75" cy="75" r="75"></circle>
                <g id="Group-8" transform="translate(37.078652, 42.134831)">
                    <g id="coffee-maker">
                        <path d="M13.4831461,48.2804664 C13.4831461,50.7399778 15.4840227,52.7407081 17.9433878,52.7407081 C20.4028992,52.7407081 22.4036295,50.7398315 22.4036295,48.2804664 C22.4036295,45.8211013 20.4027529,43.8202247 17.9433878,43.8202247 C15.4840227,43.8202247 13.4831461,45.8211013 13.4831461,48.2804664" id="Fill-1" fill="#28E7A8"></path>
                        <path d="M38.7640449,17.5660785 L45.4152004,17.5660785 L45.4152004,21.958293 L58.5887718,21.958293 L58.5887718,17.5660785 L69.6289234,17.5660785 L69.6289234,10.137804 C69.6289234,4.5478724 65.081051,0 59.4911193,0 L38.7640449,0 L38.7640449,17.5660785" id="Fill-2" fill="#373737"></path>
                        <path d="M8.77594395,26.4309698 L26.4776379,26.4309698 L26.4776379,22.0421201 L8.77594395,22.0421201 L8.77594395,26.4309698 Z M26.4758824,48.4606548 C26.4758824,53.340178 22.5061678,57.3097463 17.6267909,57.3097463 C12.7474141,57.3098926 8.77769949,53.340178 8.77769949,48.4606548 C8.77769949,43.5811317 12.7474141,39.6115634 17.6267909,39.6115634 C22.5061678,39.6115634 26.4758824,43.581278 26.4758824,48.4606548 Z M8.77594395,35.2156915 L26.4776379,35.2156915 L26.4776379,30.8268417 L8.77594395,30.8268417 L8.77594395,35.2156915 Z M35.2535819,52.9210428 L35.257093,0 L22.6625571,0 C10.1663316,0 0,10.1664778 0,22.6627034 L0,66.0946142 L74.9030357,66.0946142 L74.9030357,52.9210428 L35.2535819,52.9210428 Z" id="Fill-4" fill="#373737"></path>
                    </g>
                    <g id="Group" transform="translate(39.606742, 37.078652)" fill="#28E7A8">
                        <path d="M30.2525682,3.04959872 C29.8603531,2.47102729 29.1691011,2.12431782 28.3983949,2.12431782 L24.6517657,2.12431782 C24.6914928,1.56019262 24.7052167,1.09141252 24.7109952,0.755537721 C24.7138844,0.436998395 24.4487961,0.177688604 24.1266453,0.177688604 L0.860272873,0.177688604 C0.538844302,0.177688604 0.273756019,0.436998395 0.27953451,0.755537721 C0.3105939,3.25256822 0.953451043,13.0998395 8.93282504,15.4986356 L16.4159711,15.4986356 C19.1268058,14.6491974 20.9556982,12.8715891 22.1857945,10.8057785 C27.3380417,10.6620385 29.5555377,7.0988764 30.4186998,4.95144462 C30.6837881,4.29414125 30.6245586,3.6 30.2525682,3.04959872 Z M28.8108347,4.30497592 C28.0264045,6.25810594 26.4040931,8.53772071 23.0995185,9 C23.8478331,7.2252809 24.2508828,5.39133226 24.4682986,3.85930979 L28.3983949,3.85930979 C28.6273676,3.85930979 28.7624398,3.94165329 28.8166132,4.02038523 C28.8613965,4.0882825 28.8613965,4.18434992 28.8108347,4.30497592 Z" id="Fill-1"></path>
                    </g>
                </g>
            </g>
        </g>
    </g>
</svg>