<?xml version="1.0" encoding="UTF-8"?>
<svg width="37px" height="37px" viewBox="0 0 37 37" version="1.1" xmlns="http://www.w3.org/2000/svg" xmlns:xlink="http://www.w3.org/1999/xlink">
    <!-- Generator: Sketch 51 (57462) - http://www.bohemiancoding.com/sketch -->
    <title>coffee-beans</title>
    <desc>Created with Sketch.</desc>
    <defs></defs>
    <g id="Page-1" stroke="none" stroke-width="1" fill="none" fill-rule="evenodd">
        <g id="Desktop" transform="translate(-702.000000, -1448.000000)">
            <rect fill="#373737" x="0" y="0" width="1440" height="2292"></rect>
            <g id="coffee-beans" transform="translate(701.000000, 1448.000000)" fill="#FFFFFF">
                <path d="M14.441,14.92 C16.359,11.799 19.082,9.401 22.121,8.12 C19.48,3.081 14.68,0.12 10.121,0.44 C12.199,2.76 13.961,6.76 14.281,13.401 C14.359,13.959 14.441,14.44 14.441,14.92 Z" id="Fill-1"></path>
                <path d="M10.359,13.639 C10.039,6.28 7.719,3.241 5.879,1.959 C1.402,4.92 -0.281,11.721 2.039,18.12 C3.879,23.081 7.641,26.522 11.641,27.639 C11.402,25.721 11.402,23.721 11.801,21.721 C11.082,19.401 10.52,16.76 10.359,13.639 Z" id="Fill-3"></path>
                <path d="M32.281,10.998 C30.441,12.28 28.121,15.319 27.801,22.6 C27.48,29.241 25.48,33.799 22.922,36.92 C23.242,36.92 23.562,36.998 23.879,36.998 C28.84,36.998 33.879,33.081 36.121,27.159 C38.441,20.678 36.762,13.959 32.281,10.998 Z" id="Fill-4"></path>
                <path d="M27.961,9.561 L27.16,9.561 C22.199,9.561 17.16,13.401 14.922,19.401 C12.52,25.881 14.281,32.6 18.762,35.561 C21.242,32.998 23.48,28.998 23.719,22.522 C24.121,15.799 25.879,11.881 27.961,9.561 Z" id="Fill-6"></path>
            </g>
        </g>
    </g>
</svg>