<?xml version="1.0" encoding="UTF-8"?>
<svg width="179px" height="40px" viewBox="0 0 179 40" version="1.1" xmlns="http://www.w3.org/2000/svg" xmlns:xlink="http://www.w3.org/1999/xlink">
    <!-- Generator: Sketch 51 (57462) - http://www.bohemiancoding.com/sketch -->
    <title>footer-logo</title>
    <desc>Created with Sketch.</desc>
    <defs></defs>
    <g id="Page-1" stroke="none" stroke-width="1" fill="none" fill-rule="evenodd">
        <g id="Desktop" transform="translate(-630.000000, -2230.000000)">
            <rect fill="#373737" x="0" y="0" width="1440" height="2292"></rect>
            <g id="footer-logo" transform="translate(630.000000, 2230.000000)" fill="#FFFFFF">
                <g id="Group-3">
                    <g id="Group">
                        <path d="M35.8997143,18.6188571 C35.4342857,17.9322857 34.614,17.5208571 33.6994286,17.5208571 L29.2534286,17.5208571 C29.3005714,16.8514286 29.3168571,16.2951429 29.3237143,15.8965714 C29.3271429,15.5185714 29.0125714,15.2108571 28.6302857,15.2108571 L1.02085714,15.2108571 C0.639428571,15.2108571 0.324857143,15.5185714 0.331714286,15.8965714 C0.368571429,18.8597143 1.13142857,30.5451429 10.6002857,33.3917143 L1.728,33.3917143 C1.16828571,33.3917143 0.546,33.8168571 0.341142857,34.3388571 L0.0668571429,35.052 C-0.137142857,35.574 0.150857143,36 0.713142857,36 L28.9388571,36 C29.5011429,36 29.7891429,35.574 29.5851429,35.052 L29.3065714,34.3388571 C29.1025714,33.8168571 28.4828571,33.3917143 27.9205714,33.3917143 L19.4802857,33.3917143 C22.6971429,32.3837143 24.8674286,30.2742857 26.3271429,27.8228571 C32.4411429,27.6522857 35.0725714,23.424 36.0968571,20.8757143 C36.4114286,20.0957143 36.3411429,19.272 35.8997143,18.6188571 Z M34.1888571,20.1085714 C33.258,22.4262857 31.3328571,25.1314286 27.4114286,25.68 C28.2994286,23.574 28.7777143,21.3977143 29.0357143,19.5797143 L33.6994286,19.5797143 C33.9711429,19.5797143 34.1314286,19.6774286 34.1957143,19.7708571 C34.2488571,19.8514286 34.2488571,19.9654286 34.1888571,20.1085714 Z" id="Fill-1"></path>
                        <path d="M14.5645714,14.3202857 C14.7085714,14.484 14.9125714,14.5714286 15.114,14.5714286 C15.2845714,14.5714286 15.4551429,14.5105714 15.5922857,14.394 C15.894,14.1291429 15.9274286,13.6705714 15.666,13.3654286 C15.6462857,13.3422857 13.7177143,11.0622857 14.9562857,9.50142857 C16.6105714,7.41942857 15.6025714,5.72142857 14.8388571,5.112 C14.5277143,4.86085714 14.0657143,4.91485714 13.818,5.22942857 C13.5702857,5.54057143 13.6174286,5.99657143 13.9285714,6.24771429 C14.106,6.39771429 14.9228571,7.20514286 13.818,8.598 C11.826,11.1025714 14.454,14.1891429 14.5645714,14.3202857 Z" id="Fill-3"></path>
                        <path d="M18.4585714,1.31228571 C18.7697143,1.06114286 18.8168571,0.606 18.5691429,0.294 C18.318,-0.0205714286 17.8594286,-0.0702857143 17.5448571,0.177428571 C16.7845714,0.786857143 15.7765714,2.48742857 17.4308571,4.56685714 C18.6694286,6.12685714 16.7408571,8.41028571 16.7211429,8.43 C16.4597143,8.73514286 16.4897143,9.19371429 16.7948571,9.45857143 C16.932,9.57857143 17.1025714,9.636 17.2697143,9.636 C17.4745714,9.636 17.6785714,9.552 17.8225714,9.38485714 C17.9331429,9.25371429 20.5611429,6.16714286 18.5691429,3.66257143 C17.4642857,2.26971429 18.2811429,1.46314286 18.4585714,1.31228571 Z" id="Fill-4"></path>
                    </g>
                    <text id="CoffeeDrop" font-family="Raleway" font-size="24" font-weight="normal">
                        <tspan x="50" y="34">Coffee</tspan>
                        <tspan x="123.368" y="34" font-family="Raleway-Bold, Raleway" font-weight="bold">Drop</tspan>
                    </text>
                </g>
            </g>
        </g>
    </g>
</svg>