<?xml version="1.0" encoding="UTF-8"?>
<svg width="150px" height="150px" viewBox="0 0 150 150" version="1.1" xmlns="http://www.w3.org/2000/svg" xmlns:xlink="http://www.w3.org/1999/xlink">
    <!-- Generator: Sketch 51 (57462) - http://www.bohemiancoding.com/sketch -->
    <title>icon-3</title>
    <desc>Created with Sketch.</desc>
    <defs></defs>
    <g id="Page-1" stroke="none" stroke-width="1" fill="none" fill-rule="evenodd">
        <g id="Tablet-portrait" transform="translate(-556.000000, -666.000000)">
            <g id="icon-3" transform="translate(556.000000, 666.000000)">
                <circle id="Oval" fill="#F2F2F2" cx="75" cy="75" r="75"></circle>
                <g id="waitress" transform="translate(37.078652, 36.235955)">
                    <path d="M50.5143743,68.0445286 L56.9815868,68.0445286 C57.8751829,68.0445286 58.6021763,68.7557957 58.6021763,69.6300615 C58.6021763,70.5043273 57.8751829,71.2155944 56.9815868,71.2155944 L50.5143743,71.2155944 C49.6207782,71.2155944 48.8937848,70.5043273 48.8937848,69.6300615 C48.8937848,68.7557957 49.6207782,68.0445286 50.5143743,68.0445286 Z M16.4214112,77.5280899 L61.9796667,77.5280899 C62.5249118,68.8891583 64.2969583,60.2354086 64.8876404,57.5088847 L54.4522555,52.4114705 C53.725262,52.055837 52.8165202,52.292926 52.3621493,52.974557 L39.1853933,73.0382163 L26.0086372,52.974557 C25.5542663,52.292926 24.6455245,52.055837 23.918531,52.4114705 L13.4831461,57.5088847 C14.1041196,60.2354086 15.8761661,68.8891583 16.4214112,77.5280899 Z" id="Fill-2" fill="#28E7A8"></path>
                    <path d="M9.99901492,58.988764 L6.72723807,60.6015226 C4.64110513,61.6372392 3.11027376,63.5015289 2.53996403,65.7505134 L0.0486110219,75.5602285 C-0.0714541835,76.0336989 0.0336028713,76.5367612 0.333765885,76.9214559 C0.633928898,77.3061506 1.09918157,77.5280899 1.59445054,77.5280899 L12.6404494,77.5280899 C12.1451805,69.9229714 10.6893899,62.2438731 9.99901492,58.988764" id="Fill-4" fill="#28E7A8"></path>
                    <path d="M76.4762132,75.158847 L74.1005259,65.7559141 C73.5327516,63.5199411 72.0087258,61.6393546 69.9318671,60.6028108 L66.6746354,58.988764 C66.0022711,62.2464731 64.538011,69.9465125 64.0449438,77.5280899 L75.0268946,77.5280899 C75.041836,77.5280899 75.0717189,77.5280899 75.0866603,77.5280899 C75.9682046,77.5280899 76.6853933,76.817317 76.6853933,75.9436587 C76.6853933,75.6623111 76.6106861,75.3809635 76.4762132,75.158847" id="Fill-6" fill="#28E7A8"></path>
                    <path d="M33.9150857,32.8651685 L30.9725548,32.8651685 C30.1574876,32.8651685 29.494382,32.1055547 29.494382,31.1718626 C29.494382,30.2381706 30.1574876,29.494382 30.9725548,29.494382 L33.9150857,29.494382 C34.7301529,29.494382 35.3932584,30.2539959 35.3932584,31.1876879 C35.3932584,32.12138 34.7301529,32.8651685 33.9150857,32.8651685" id="Fill-7" fill="#373737"></path>
                    <path d="M46.5555351,32.8651685 L43.6130042,32.8651685 C42.797937,32.8651685 42.1348315,32.1091043 42.1348315,31.1797753 C42.1348315,30.2504463 42.797937,29.494382 43.6130042,29.494382 L46.5555351,29.494382 C47.3706023,29.494382 48.0337079,30.2504463 48.0337079,31.1797753 C48.0337079,32.1091043 47.3706023,32.8651685 46.5555351,32.8651685" id="Fill-8" fill="#373737"></path>
                    <path d="M39.1853933,51.5434336 C32.3277602,51.5434336 26.1967638,45.4421892 23.9411626,36.3356289 C23.8200565,35.8372599 23.4113234,35.4597076 22.926899,35.2633805 C22.4424746,35.0670533 21.8520824,35.1576658 21.4130727,35.4295034 C21.0194779,35.4295034 19.7932786,33.7229673 19.7932786,30.5968346 C19.7932786,29.7511176 19.8841082,28.9356047 20.0657673,28.1956023 C22.4727511,27.0780476 29.8450851,23.1364021 32.0704097,15.7212758 C36.9146538,21.0221095 47.8293413,28.0747856 58.3655722,28.6033587 C58.4866783,29.2376465 58.5472314,29.9172405 58.5472314,30.6119367 C58.5472314,33.7380693 57.3967234,35.4899118 56.8366077,35.3690951 C56.3975981,35.0972575 55.8526206,35.0519512 55.3833345,35.2331763 C54.89891,35.4295034 54.55073,35.8372599 54.4144856,36.3356289 C52.1740227,45.4421892 46.0430263,51.5434336 39.1853933,51.5434336 Z M67.7815717,42.3462607 C64.6933661,39.2654343 61.8019579,27.7425396 61.8019579,22.5474206 C61.8019579,10.1184004 51.6593218,0 39.2005315,0 C26.7417412,0 16.5839669,10.1184004 16.5839669,22.5474206 C16.5839669,27.7576417 13.6925587,39.2654343 10.5892148,42.3462607 C9.95340779,42.9805485 9.95340779,43.9923885 10.5892148,44.6266763 C14.1618448,48.1907696 26.3178699,49.7462849 27.6803135,49.92751 C27.7408666,49.9426121 27.8165579,49.9426121 27.8771109,49.9426121 C31.0864227,53.0083364 35.0072327,54.7752809 39.1853933,54.7752809 C43.3484155,54.7752809 47.2692256,53.0083364 50.4936756,49.9426121 C50.5542286,49.9426121 50.6299199,49.9426121 50.690473,49.92751 C52.0680549,49.761387 64.2089417,48.1907696 67.7815717,44.6266763 C68.4173787,44.0074906 68.4173787,42.9805485 67.7815717,42.3462607 Z" id="Fill-9" fill="#373737"></path>
                    <path d="M44.7973319,42.3830749 C44.0901976,41.9055743 43.157382,42.1360918 42.7210651,42.909972 C42.7210651,42.9264375 41.8484312,43.8979041 39.1853933,43.8979041 C36.5223553,43.8979041 35.6497214,42.9264375 35.6497214,42.909972 C35.2134045,42.1360918 34.2805889,41.9055743 33.5734546,42.3830749 C32.8663202,42.8605754 32.6556844,43.8814386 33.0920014,44.6553188 C33.332728,45.0834227 34.7620421,47.1910112 39.1853933,47.1910112 C43.6087444,47.1910112 45.0380585,45.0834227 45.2787851,44.6553188 C45.7151021,43.8814386 45.5044663,42.8770409 44.7973319,42.3830749" id="Fill-10" fill="#373737"></path>
                </g>
            </g>
        </g>
    </g>
</svg>