<?xml version="1.0" encoding="UTF-8"?>
<svg width="64px" height="84px" viewBox="0 0 64 84" version="1.1" xmlns="http://www.w3.org/2000/svg" xmlns:xlink="http://www.w3.org/1999/xlink">
    <!-- Generator: Sketch 51 (57462) - http://www.bohemiancoding.com/sketch -->
    <title>Group 4</title>
    <desc>Created with Sketch.</desc>
    <defs>
        <filter x="-18.5%" y="-20.3%" width="137.0%" height="127.0%" filterUnits="objectBoundingBox" id="filter-1">
            <feOffset dx="0" dy="-5" in="SourceAlpha" result="shadowOffsetOuter1"></feOffset>
            <feGaussianBlur stdDeviation="2.5" in="shadowOffsetOuter1" result="shadowBlurOuter1"></feGaussianBlur>
            <feColorMatrix values="0 0 0 0 0   0 0 0 0 0   0 0 0 0 0  0 0 0 0.25 0" type="matrix" in="shadowBlurOuter1" result="shadowMatrixOuter1"></feColorMatrix>
            <feMerge>
                <feMergeNode in="shadowMatrixOuter1"></feMergeNode>
                <feMergeNode in="SourceGraphic"></feMergeNode>
            </feMerge>
        </filter>
    </defs>
    <g id="Page-1" stroke="none" stroke-width="1" fill="none" fill-rule="evenodd">
        <g id="Desktop" transform="translate(-299.000000, -1819.000000)">
            <rect fill="#373737" x="0" y="0" width="1440" height="2292"></rect>
            <g id="Group-4" filter="url(#filter-1)" transform="translate(304.000000, 1829.000000)">
                <path d="M26.9589438,73.159562 C23.6259807,73.159562 20.9147623,72.0021863 20.9147623,70.579781 C20.9147623,69.1572038 23.6259807,68 26.9589438,68 C30.291504,68 33.0031253,69.1572038 33.0031253,70.579781 C33.0031253,72.0021863 30.291504,73.159562 26.9589438,73.159562 Z" id="Path" fill="#373737"></path>
                <g id="placeholder-(1)" fill="#28E7A8">
                    <path d="M26.9589438,0.134472779 C12.0937753,0.134472779 0,12.2994785 0,27.2522006 C0,33.5872722 2.17173034,39.4226991 5.80510112,44.0438023 L26.9589438,70.796765 L48.1127865,44.0438023 C51.7459551,39.4226991 53.9178876,33.5872722 53.9178876,27.2522006 C53.9178876,12.2994785 41.8241124,0.134472779 26.9589438,0.134472779 Z M26.9589438,40.2872106 C19.6147998,40.2872106 13.6406629,34.2769939 13.6406629,26.8904871 C13.6406629,19.5030872 19.6147998,13.4937636 26.9589438,13.4937636 C34.3022,13.4937636 40.2772247,19.5030872 40.2772247,26.8904871 C40.2772247,34.2769939 34.3022,40.2872106 26.9589438,40.2872106 Z" id="Fill-3"></path>
                </g>
                <path d="M26.9589438,42.1595615 C18.5883686,42.1595615 11.7792753,35.3093458 11.7792753,26.8904871 C11.7792753,18.4706105 18.5883686,11.6214127 26.9589438,11.6214127 C35.3285071,11.6214127 42.1386124,18.4706105 42.1386124,26.8904871 C42.1386124,35.3093458 35.3285071,42.1595615 26.9589438,42.1595615 Z" id="Path" fill="#FFFFFF"></path>
                <g id="coffee-beans" transform="translate(18.000000, 18.000000)" fill="#373737">
                    <path d="M6.68571429,7.43478261 C7.63417582,5.83490132 8.98071429,4.60564296 10.4835165,3.9489791 C9.17752747,1.36589617 6.8039011,-0.151966212 4.54945055,0.0120716007 C5.57703297,1.20134574 6.44835165,3.25181839 6.60659341,6.65611562 C6.64516484,6.94215655 6.68571429,7.18872589 6.68571429,7.43478261 Z" id="Fill-1"></path>
                    <path d="M4.79911014,6.93166734 C4.6350377,3.08483806 3.44551256,1.49623713 2.50209608,0.826086957 C0.206620192,2.37391431 -0.65629826,5.92905577 0.533226879,9.27405653 C1.47664337,11.86736 3.40551991,13.6661016 5.45642532,14.25 C5.33388372,13.2473884 5.33388372,12.2019123 5.53846154,11.1564362 C5.16981129,9.94368397 4.88165908,8.56313279 4.79911014,6.93166734 Z" id="Fill-3"></path>
                    <path d="M15.5592794,5.36956522 C14.6391499,6.0416505 13.4789867,7.63483863 13.3189642,11.4518846 C13.1584416,14.9334122 12.1583009,17.3229323 10.8791209,18.9591087 C11.0391434,18.9591087 11.1991659,19 11.3576882,19 C13.8385373,19 16.3583918,16.9465226 17.4795496,13.8419289 C18.6397128,10.4442809 17.8000947,6.92186204 15.5592794,5.36956522 Z" id="Fill-4"></path>
                    <path d="M13.4505495,4.75 L13.0577051,4.75 C10.6246205,4.75 8.1532814,6.76311037 7.05567137,9.90859532 C5.8776288,13.3057191 6.74129781,16.828138 8.93897008,18.3804348 C10.1552672,17.0367885 11.2528772,14.9397985 11.3700929,11.5447717 C11.5672507,8.02025585 12.4294484,5.96625418 13.4505495,4.75 Z" id="Fill-6"></path>
                </g>
            </g>
        </g>
    </g>
</svg>